<?xml version="1.0" encoding="utf-8"?>
<!-- Generator: Adobe Illustrator 15.1.0, SVG Export Plug-In . SVG Version: 6.00 Build 0)  -->
<!DOCTYPE svg PUBLIC "-//W3C//DTD SVG 1.1//EN" "http://www.w3.org/Graphics/SVG/1.1/DTD/svg11.dtd">
<svg version="1.1" id="Layer_1" xmlns="http://www.w3.org/2000/svg" xmlns:xlink="http://www.w3.org/1999/xlink" x="0px" y="0px"
	 width="56.69px" height="56.69px" viewBox="0 0 56.69 56.69" enable-background="new 0 0 56.69 56.69" xml:space="preserve">
<style type="text/css">
	.st0{fill-rule:evenodd;clip-rule:evenodd;fill:#ffffff;}
</style>
<g>
	<path class="st0" d="M37.176,50.505c-1.202,0-2.332-0.468-3.182-1.318L16.335,31.528c-0.852-0.852-1.32-1.982-1.32-3.184
		c0-1.202,0.468-2.332,1.318-3.182l17.661-17.66c0.85-0.85,1.979-1.318,3.182-1.318s2.332,0.468,3.182,1.318
		c0.851,0.85,1.318,1.98,1.318,3.183s-0.469,2.333-1.318,3.182L25.879,28.345l14.479,14.478c0.85,0.85,1.318,1.979,1.318,3.182
		s-0.469,2.332-1.318,3.182C39.508,50.037,38.377,50.505,37.176,50.505z M17.718,30.082l0.031,0.03l17.66,17.66
		c0.945,0.945,2.59,0.945,3.535,0c0.473-0.473,0.732-1.1,0.732-1.768s-0.26-1.295-0.732-1.768L23.051,28.345l15.893-15.892
		c0.473-0.472,0.732-1.1,0.732-1.768s-0.26-1.296-0.732-1.769c-0.945-0.944-2.59-0.944-3.535,0l-17.661,17.66
		c-0.472,0.472-0.732,1.1-0.732,1.767C17.015,28.998,17.264,29.613,17.718,30.082z"/>
</g>
</svg>
