<?xml version="1.0" encoding="utf-8"?>
<!-- Generator: Adobe Illustrator 15.1.0, SVG Export Plug-In . SVG Version: 6.00 Build 0)  -->
<!DOCTYPE svg PUBLIC "-//W3C//DTD SVG 1.1//EN" "http://www.w3.org/Graphics/SVG/1.1/DTD/svg11.dtd">
<svg version="1.1" id="Layer_1" xmlns="http://www.w3.org/2000/svg" xmlns:xlink="http://www.w3.org/1999/xlink" x="0px" y="0px"
	 width="56.69px" height="56.69px" viewBox="0 0 56.69 56.69" enable-background="new 0 0 56.69 56.69" xml:space="preserve">
<style type="text/css">
	.st0{fill-rule:evenodd;clip-rule:evenodd;fill:#ffcc00;}
</style>
<g>
	<path class="st0" d="M19.515,50.505c-1.202,0-2.332-0.468-3.182-1.318c-0.85-0.85-1.318-1.979-1.318-3.182s0.469-2.332,1.318-3.182
		l14.479-14.479L16.333,13.867c-0.85-0.849-1.318-1.979-1.318-3.182s0.468-2.332,1.318-3.183c0.85-0.85,1.979-1.317,3.182-1.317
		s2.332,0.468,3.182,1.317l17.661,17.66c0.851,0.85,1.318,1.979,1.318,3.182s-0.468,2.332-1.318,3.182l-17.661,17.66
		C21.847,50.037,20.717,50.505,19.515,50.505z M19.515,8.186c-0.668,0-1.295,0.26-1.768,0.731c-0.473,0.473-0.732,1.101-0.732,1.769
		s0.26,1.296,0.732,1.768L33.64,28.345L17.747,44.237c-0.473,0.473-0.732,1.1-0.732,1.768s0.26,1.295,0.732,1.768
		c0.945,0.945,2.59,0.945,3.535,0l17.705-17.704c0.443-0.466,0.688-1.076,0.688-1.724c0-0.668-0.26-1.295-0.732-1.767L21.282,8.917
		C20.81,8.445,20.183,8.186,19.515,8.186z"/>
</g>
</svg>
