<?xml version="1.0" encoding="utf-8"?>
<!-- Generator: Adobe Illustrator 15.1.0, SVG Export Plug-In . SVG Version: 6.00 Build 0)  -->
<!DOCTYPE svg PUBLIC "-//W3C//DTD SVG 1.1//EN" "http://www.w3.org/Graphics/SVG/1.1/DTD/svg11.dtd">
<svg version="1.1"  xmlns="http://www.w3.org/2000/svg" xmlns:xlink="http://www.w3.org/1999/xlink" x="0px" y="0px"
	  viewBox="0 0 56.689 56.689" width="56.69px" height="56.69px" enable-background="new 0 0 56.689 56.689" xml:space="preserve">
<style type="text/css">
	.st0{fill-rule:evenodd;clip-rule:evenodd;fill:#ffcc00;}
</style>
<path class="st0" d="M28.345,3.407c-13.772,0-24.938,11.165-24.938,24.938s11.165,24.938,24.938,24.938s24.938-11.165,24.938-24.938
	S42.117,3.407,28.345,3.407z M28.345,51.282c-12.648,0-22.938-10.29-22.938-22.938c0-12.648,10.29-22.938,22.938-22.938
	c12.647,0,22.938,10.29,22.938,22.938C51.282,40.992,40.992,51.282,28.345,51.282z M41.347,39.286c0.586,0.586,0.586,1.536,0,2.122
	c-0.586,0.585-1.535,0.586-2.121,0L28.609,30.792c-0.077,0.008-0.151,0.023-0.23,0.023c-1.347,0-2.438-1.092-2.438-2.438
	c0-0.777,0.37-1.461,0.937-1.908V14.761c0-0.828,0.672-1.5,1.5-1.5c0.829,0,1.501,0.672,1.501,1.5V26.47
	c0.566,0.446,0.938,1.131,0.938,1.908c0,0.117-0.019,0.229-0.034,0.342L41.347,39.286z"/>
</svg>
