<?xml version="1.0" encoding="utf-8"?>
<!-- Generator: Adobe Illustrator 15.1.0, SVG Export Plug-In . SVG Version: 6.00 Build 0)  -->
<!DOCTYPE svg PUBLIC "-//W3C//DTD SVG 1.1//EN" "http://www.w3.org/Graphics/SVG/1.1/DTD/svg11.dtd">
<svg version="1.1" xmlns="http://www.w3.org/2000/svg" xmlns:xlink="http://www.w3.org/1999/xlink" x="0px" y="0px"
	 width="56.689px" height="56.689px" viewBox="0 0 56.689 56.689" enable-background="new 0 0 56.689 56.689" xml:space="preserve">
<style type="text/css">
	.st0{fill-rule:evenodd;clip-rule:evenodd;fill:#ffcc00;}
</style>
<path class="st0" d="M51.618,20.241L36.077,4.699c-0.988-0.987-2.713-0.987-3.701,0.001l-6.861,6.86c-1.02,1.02-1.02,2.68,0,3.701l6.89,6.889
	L21.648,32.908l-0.677-0.677c-1.133-1.131-3.106-1.132-4.241,0.001L5.951,43.012c-0.567,0.567-0.88,1.321-0.879,2.124
	c0.001,0.801,0.313,1.554,0.879,2.118l4.596,4.598c0.566,0.566,1.32,0.879,2.122,0.879s1.556-0.313,2.12-0.879l10.779-10.779
	c1.17-1.17,1.17-3.072,0-4.242l-0.739-0.739l10.758-10.759l4.775,4.776l0.721,0.692l0.207-0.205
	c0.096,0.018,0.195,0.027,0.295,0.027h8.166c0.924,0,1.674-0.751,1.674-1.674v-8.167c0-0.105-0.01-0.209-0.029-0.311L51.618,20.241z
	 M24.154,39.658l-10.78,10.78c-0.376,0.377-1.036,0.375-1.413-0.001l-4.597-4.599c-0.188-0.188-0.292-0.438-0.292-0.705
	c0-0.268,0.104-0.519,0.293-0.708l10.778-10.778c0.189-0.188,0.44-0.293,0.708-0.293s0.519,0.104,0.707,0.292l4.596,4.598
	C24.544,38.634,24.544,39.269,24.154,39.658z M49.425,28.623h-7.684l-0.619-0.688l-0.053,0.051L26.93,13.848
	c-0.241-0.241-0.241-0.633-0.001-0.874l6.861-6.86c0.232-0.234,0.641-0.232,0.873,0l14.152,14.153l-0.072,0.075l0.682,0.597V28.623z
	"/>
</svg>
