<?xml version="1.0" encoding="utf-8"?>
<!-- Generator: Adobe Illustrator 15.1.0, SVG Export Plug-In . SVG Version: 6.00 Build 0)  -->
<!DOCTYPE svg PUBLIC "-//W3C//DTD SVG 1.1//EN" "http://www.w3.org/Graphics/SVG/1.1/DTD/svg11.dtd">
<svg version="1.1" xmlns="http://www.w3.org/2000/svg" xmlns:xlink="http://www.w3.org/1999/xlink" x="0px" y="0px"
	 width="56.69px" height="56.69px" viewBox="0 0 56.69 56.69" enable-background="new 0 0 56.69 56.69" xml:space="preserve">
<style type="text/css">
	.st0{fill-rule:evenodd;clip-rule:evenodd;fill:#ffcc00;}
</style>
<path class="st0" d="M28.402,54.271h-0.115c-1.739,0-3.002-1.446-3.14-1.611C17.521,43.526,9.386,32.882,9.386,22.115
	c0-10.86,8.504-19.696,18.958-19.696c10.455,0,18.961,8.835,18.961,19.696c0,10.776-8.136,21.417-15.762,30.544
	c0-0.001,0-0.001,0-0.001S30.236,54.271,28.402,54.271z M28.344,4.419c-9.351,0-16.958,7.938-16.958,17.696
	c0,10.098,7.895,20.399,15.295,29.262c0.21,0.244,0.921,0.895,1.606,0.895h0.115c0.682,0,1.406-0.663,1.606-0.896
	c7.4-8.857,15.296-19.155,15.296-29.261C45.305,12.357,37.696,4.419,28.344,4.419z M28.347,33.415
	c-6.793,0-12.32-5.526-12.32-12.319s5.527-12.319,12.32-12.319c6.792,0,12.317,5.526,12.317,12.319S35.139,33.415,28.347,33.415z
	 M28.347,10.777c-5.69,0-10.32,4.629-10.32,10.319s4.63,10.319,10.32,10.319c5.689,0,10.317-4.629,10.317-10.319
	S34.036,10.777,28.347,10.777z"/>
</svg>
