<?xml version="1.0" encoding="utf-8"?>
<!-- Generator: Adobe Illustrator 15.1.0, SVG Export Plug-In . SVG Version: 6.00 Build 0)  -->
<!DOCTYPE svg PUBLIC "-//W3C//DTD SVG 1.1//EN" "http://www.w3.org/Graphics/SVG/1.1/DTD/svg11.dtd">
<svg version="1.1" xmlns="http://www.w3.org/2000/svg" xmlns:xlink="http://www.w3.org/1999/xlink" x="0px" y="0px"
	 width="56.69px" height="56.69px" viewBox="0 0 56.69 56.69" enable-background="new 0 0 56.69 56.69" xml:space="preserve">
<style type="text/css">
	.st0{fill-rule:evenodd;clip-rule:evenodd;fill:#ffcc00;}
</style>
<path class="st0" d="M50.822,29.134c1.02-1.021,1.02-2.681,0-3.701L29.25,3.86c-0.988-0.989-2.712-0.987-3.701,0l-2.465,2.464l-0.403-0.404
	c-0.586-0.586-1.535-0.586-2.121,0c-0.586,0.585-0.586,1.536,0,2.121l0.403,0.404l-2.274,2.275c-1.02,1.021-1.02,2.68,0,3.701
	l21.573,21.572c0.494,0.494,1.15,0.767,1.85,0.767s1.355-0.272,1.85-0.767l2.275-2.274l0.695,0.695l-6.344,6.344L27.756,27.926
	l-4.772,4.772l-1.241-1.241c-0.764-0.765-1.78-1.185-2.86-1.185s-2.096,0.42-2.859,1.184c-0.922,0.922-1.327,2.212-1.124,3.481
	l-8.916,8.916c-0.566,0.566-0.879,1.32-0.879,2.121c0,0.802,0.313,1.556,0.879,2.121l4.596,4.597
	c0.566,0.566,1.32,0.879,2.121,0.879c0.802,0,1.556-0.313,2.121-0.879l8.916-8.916c0.212,0.033,0.426,0.05,0.641,0.05
	c1.074,0,2.084-0.417,2.842-1.174c1.576-1.577,1.576-4.144,0-5.721l-2.113-2.113l2.65-2.65L40.588,45l10.586-10.586l-2.816-2.817
	L50.822,29.134z M25.805,41.238c-0.38,0.379-0.887,0.588-1.428,0.588c-0.22,0-0.438-0.034-0.646-0.102l-0.582-0.188l-9.743,9.742
	c-0.377,0.377-1.034,0.377-1.413,0l-4.596-4.598c-0.189-0.188-0.293-0.438-0.293-0.706c0-0.267,0.104-0.518,0.293-0.707l9.742-9.742
	l-0.188-0.582c-0.239-0.739-0.053-1.534,0.486-2.073c0.386-0.386,0.899-0.598,1.445-0.598s1.06,0.213,1.446,0.599l5.477,5.475
	C26.602,39.144,26.602,40.44,25.805,41.238z M42.547,34.579c-0.232,0.233-0.639,0.231-0.871,0L20.103,13.007
	c-0.24-0.24-0.24-0.632,0-0.873l6.86-6.86c0.116-0.117,0.271-0.181,0.437-0.181s0.32,0.064,0.437,0.181l0.686,0.686
	c-0.617,2.363-1.042,5.249,0.158,6.356c2.166,2,6.076,2,6.076,2s0.707,3.887,2.375,5.61c1.666,1.723,6.166,1.723,6.166,1.723
	s-3.334,4.5-2.166,5.833c1.166,1.332,6-1,6-1l1.32-0.593l0.955,0.955c0.242,0.241,0.242,0.633,0.002,0.874L42.547,34.579z"/>
</svg>
