<?xml version="1.0" encoding="utf-8"?>
<!-- Generator: Adobe Illustrator 15.1.0, SVG Export Plug-In . SVG Version: 6.00 Build 0)  -->
<!DOCTYPE svg PUBLIC "-//W3C//DTD SVG 1.1//EN" "http://www.w3.org/Graphics/SVG/1.1/DTD/svg11.dtd">
<svg version="1.1" id="Layer_1" xmlns="http://www.w3.org/2000/svg" xmlns:xlink="http://www.w3.org/1999/xlink" x="0px" y="0px"
	 width="56.69px" height="56.69px" viewBox="0 0 56.69 56.69" enable-background="new 0 0 56.69 56.69" xml:space="preserve">
<style type="text/css">
	.st0{fill-rule:evenodd;clip-rule:evenodd;fill:#ffcc00;}
</style>
<path class="st0" d="M5.963,10.859l3.938,3.938H4.829c-1.087,0-1.969-0.882-1.969-1.969c0-1.088,0.882-1.969,1.969-1.969H5.963z M8.527,10.859
	l3.938,3.938h4.641l-3.938-3.938H8.527z M46.4,22.953l3.586,13.832h1.408c1.344,0,2.436,1.093,2.436,2.436v3.788v2v6.545
	c0,1.343-1.092,2.435-2.436,2.435H29.705c-1.343,0-2.435-1.092-2.435-2.435v-6.545v-2v-3.788c0-1.343,1.092-2.436,2.435-2.436h7.045
	l-1.057-4.078l-3.451-1.422c-0.23-0.095-0.34-0.359-0.246-0.589c0.096-0.23,0.359-0.341,0.59-0.245l0.395,0.162l1.332-3.23
	l-1.148-4.43h-1.543l-11.497-3.965v-4.191h-0.457l-3.938-3.938h4.395V6.711l11.497-4.009H50.83c1.654,0,3,1.346,3,3v14.251
	c0,1.654-1.346,3-3,3H46.4z M50.83,4.702H32.789v16.251h13.092h4.949c0.553,0,1-0.449,1-1V5.702
	C51.83,5.151,51.383,4.702,50.83,4.702z M22.125,17.563l8.665,2.987V5.11l-8.665,3.021V17.563z M51.83,45.009h-9.455v-2.492h-2.232
	v2.492H29.27v6.545c0,0.239,0.195,0.435,0.436,0.435h21.689c0.24,0,0.436-0.195,0.436-0.435V45.009z M50.504,38.785H37.27h-7.564
	c-0.24,0-0.436,0.195-0.436,0.436v3.788h8.873v-0.492c0-1.103,0.898-2,2-2h2.232c1.104,0,2,0.897,2,2v0.492h7.455v-3.788
	c0-0.24-0.195-0.436-0.436-0.436H50.504z M44.334,22.953h-9.105l3.588,13.832h9.104L44.334,22.953z M36.758,10.34H48.34
	c0.508,0,0.918-0.41,0.918-0.916c0-0.507-0.41-0.917-0.918-0.917H36.758c-0.508,0-0.918,0.41-0.918,0.917
	C35.84,9.93,36.25,10.34,36.758,10.34z M36.758,13.744H48.34c0.508,0,0.918-0.41,0.918-0.916c0-0.507-0.41-0.917-0.918-0.917H36.758
	c-0.508,0-0.918,0.41-0.918,0.917C35.84,13.334,36.25,13.744,36.758,13.744z M48.34,15.314H36.758c-0.508,0-0.918,0.411-0.918,0.917
	s0.41,0.917,0.918,0.917H48.34c0.508,0,0.918-0.411,0.918-0.917S48.848,15.314,48.34,15.314z"/>
</svg>
